<?xml version="1.0" standalone="yes"?>
<svg version="1.1" viewBox="0.0 0.0 960.0 720.0" fill="none" stroke="none" stroke-linecap="square" stroke-miterlimit="10" xmlns="http://www.w3.org/2000/svg" xmlns:xlink="http://www.w3.org/1999/xlink">
    <clipPath id="p.0">
        <path d="m0 0l960.0 0l0 720.0l-960.0 0l0 -720.0z" clip-rule="nonzero"></path>
    </clipPath>
    <g clip-path="url(#p.0)">
        <!-- Background -->
        <path fill="#000000" fill-opacity="0.0" d="m0 0l960.0 0l0 720.0l-960.0 0z" fill-rule="nonzero"></path>
        <path fill="#f4cccc" d="m298.79266 229.03937l0 0c0 -91.60098 74.25726 -165.85826 165.85825 -165.85826l0 0c43.988342 0 86.17508 17.4743 117.27951 48.578762c31.104492 31.104454 48.578796 73.29116 48.578796 117.2795l0 0c0 91.60098 -74.257324 165.85828 -165.8583 165.85828l0 0c-91.60098 0 -165.85825 -74.25729 -165.85825 -165.85828z" fill-rule="nonzero"></path>
        <path stroke="#000000" stroke-width="4.0" stroke-linejoin="round" stroke-linecap="butt" stroke-dasharray="16.0,12.0" d="m298.79266 229.03937l0 0c0 -91.60098 74.25726 -165.85826 165.85825 -165.85826l0 0c43.988342 0 86.17508 17.4743 117.27951 48.578762c31.104492 31.104454 48.578796 73.29116 48.578796 117.2795l0 0c0 91.60098 -74.257324 165.85828 -165.8583 165.85828l0 0c-91.60098 0 -165.85825 -74.25729 -165.85825 -165.85828z" fill-rule="nonzero"></path>


        <!-- Route # -->
        <path fill="#000000" fill-opacity="0.0" d="m422.5223 290.89502l104.00003 0l0 42.11023l-104.00003 0z" fill-rule="nonzero"></path>
        <text x="320" y="220" style= "stroke: #000000; fill: #ffffff;" font-family="Arial" font-size="96">{stop_id}</text>

        <!-- grid -->
        <path fill="#000000" fill-opacity="0.0" d="m464.6509 63.181103l0 331.71655" fill-rule="nonzero"></path>
        <path stroke="#ea9999" stroke-width="1.0" stroke-linejoin="round" stroke-linecap="butt" d="m464.6509 63.181103l0 331.71655" fill-rule="nonzero"></path>
        <path fill="#000000" fill-opacity="0.0" d="m298.79266 229.03937l331.71655 0" fill-rule="nonzero"></path>
        <path stroke="#ea9999" stroke-width="1.0" stroke-linejoin="round" stroke-linecap="butt" d="m298.79266 229.03937l331.71655 0" fill-rule="nonzero"></path>

        <!-- hands -->
        {hands}

        <!-- Prochain streetcar -->
        {legends}

    </g>
</svg>
